<svg xmlns="http://www.w3.org/2000/svg" width="311" height="281" fill="none"><path fill="#FFE766" d="M223.749 2.043c-4.707 2.038-9.082 5.866-12.662 11.175-1.724 2.532-3.182 4.631-3.315 4.631-.066 0-1.259-.432-2.652-.988-7.756-3.025-19.159 4.137-25.523 16.114-2.586 4.816-2.851 5.866-3.116 10.867-.332 6.421.795 10.126 3.845 12.533 1.061.803 6.696 4.075 12.596 7.162l10.674 5.742-5.503 2.717c-9.149 4.569-15.646 9.323-26.253 19.14l-10.143 9.446-5.105-3.89c-10.342-7.903-23.999-16.176-35.6-21.547-3.249-1.544-15.381-6.421-26.85-10.928l-20.95-8.15-1.59-2.779c-2.056-3.704-6.63-7.347-10.608-8.582-7.425-2.284-16.11-.864-25.39 4.199-5.901 3.21-16.84 13.212-21.149 19.263-15.513 21.918-18.894 45.441-8.42 57.851 2.652 3.087 7.956 5.927 12.133 6.421 3.05.433 3.314.556 4.574 3.273 1.26 2.531 1.458 4.445 1.856 19.201.332 13.645.663 17.164 1.79 21.054 2.85 9.755 6.166 15.744 14.917 26.734 18.164 22.782 29.368 32.105 49.986 41.675 26.187 12.163 39.181 15.62 47.6 12.657 6.961-2.47 3.381-3.334 43.755 10.125 20.419 6.854 38.982 12.719 41.236 13.151 5.701.988 15.778.494 19.027-.988 4.906-2.222 9.016-7.841 9.016-12.348 0-.741.398-1.79.862-2.346.729-.988 1.392-.803 8.22 1.729 13.127 5.001 20.684 5.68 27.712 2.469 4.508-2.037 8.486-6.976 9.878-12.163.265-1.049 1.392-2.284 2.917-3.21 3.447-2.038 7.093-5.989 8.088-8.706 2.585-7.347-2.851-17.411-14.32-26.487-2.652-2.099-4.972-4.136-5.171-4.568-.199-.494.597-1.914 1.856-3.273 2.917-3.21 3.978-6.976 3.05-10.866-1.79-7.224-9.746-16.67-19.093-22.474-2.785-1.729-5.039-3.457-4.906-3.766.066-.309 1.458-3.396 3.116-6.977 3.58-7.841 7.093-18.213 9.082-26.857 1.26-5.557 1.459-8.335 1.459-19.14 0-14.509-.862-18.646-5.503-27.475-4.906-9.2-8.419-12.286-23.269-20.374-11.138-5.99-15.978-7.841-22.673-8.582l-3.713-.432 8.287-13.398c13.193-21.24 14.121-23.277 14.121-30.933 0-3.395-.332-5.31-1.392-7.285-1.525-2.963-2.453-3.704-10.873-8.15-7.027-3.766-10.408-4.075-15.911-1.667Zm10.342 3.828 2.056.988-2.851 1.297c-3.713 1.667-9.613 7.409-12.53 12.04l-2.32 3.704-2.984-1.606c-1.657-.864-3.115-1.667-3.248-1.728-.53-.433 4.972-7.903 7.756-10.496 5.105-4.754 10.011-6.236 14.121-4.199Zm9.481 5.248c3.845 1.667 4.773 8.335 2.187 15.374-1.591 4.26-25.987 44.392-27.313 44.824-.398.185-6.033-2.532-12.53-5.99-14.121-7.532-14.585-7.964-14.121-14.755.398-5.804 2.254-10.311 6.364-15.497 5.171-6.545 11.735-9.755 16.243-7.965 1.127.432 3.116.803 4.375.864 2.188.062 2.519-.185 5.702-4.815 4.508-6.298 7.756-9.447 11.866-11.237 3.713-1.667 4.84-1.79 7.227-.803ZM205.12 21.862c.73.494 1.194.988.995 1.112-.133.123-1.658.926-3.315 1.852-8.618 4.569-15.845 16.546-15.845 26.116v4.013l-1.922-.926c-4.044-1.976-5.105-8.088-2.718-15.312 2.32-6.976 8.751-14.694 14.187-16.917 2.718-1.05 7.027-1.05 8.618.062ZM58.807 48.782c2.254.74 6.165 3.148 6.165 3.765 0 .247-2.188.433-4.84.433-8.95 0-17.502 3.89-27.048 12.348-19.16 16.855-28.905 41.058-22.143 54.888.928 1.975 2.52 4.26 3.448 5.186 2.585 2.531.663 2.099-2.52-.556C-1.123 113.918 4.644 84.9 24.135 63.908c6.298-6.854 15.38-12.842 22.54-14.941 3.382-.988 9.613-1.112 12.133-.186Zm7.491 9.446c10.872 3.828 51.578 20.374 57.345 23.338 9.746 5 20.419 11.545 28.64 17.658l6.762 5.001-6.232 8.705c-9.679 13.521-17.767 29.759-21.877 44.022-3.249 11.175-3.912 16.114-3.912 28.215.067 10.311.199 11.978 1.79 17.411 2.387 8.459 6.365 15.312 11.735 20.251 3.381 3.087 6.961 5.372 15.579 10.002 14.121 7.471 15.911 8.027 25.524 8.397 8.353.247 15.181-.864 22.805-3.766l3.978-1.544 5.9 1.482c11.735 2.964 18.563 6.236 25.723 12.472 2.453 2.099 5.569 5.371 6.961 7.285 2.453 3.334 2.519 3.396 1.392 5.125-.596.988-1.127 2.593-1.127 3.581-.066 2.469-2.188 6.544-4.309 8.088-.994.741-3.05 1.667-4.574 2.037-3.249.865-12.597.371-17.303-.864-1.79-.494-19.094-6.174-38.319-12.534l-35.004-11.669.53-2.778c.862-4.692.464-9.57-1.06-12.595-4.177-7.965-25.392-21.239-42.628-26.549-5.304-1.667-6.829-1.605-7.36.247-.463 1.791.2 2.285 6.166 4.075 14.519 4.445 33.678 15.868 38.518 22.968 1.591 2.346 1.922 3.457 1.856 6.544 0 5.495-1.061 7.656-4.309 8.953l-2.652 1.111.265-3.643c.398-5.309-.861-8.89-4.508-12.286-5.436-5.063-15.181-7.286-22.805-5.248-4.508 1.235-8.884 4.631-10.674 8.335l-1.193 2.47-6.365-3.026c-14.85-6.915-26.518-16.052-38.981-30.561-13.326-15.559-18.364-23.524-21.215-33.588-1.524-5.309-1.723-7.532-2.121-21.979l-.398-16.053-2.121-4.137c-1.194-2.408-3.78-5.803-6.166-8.211-5.701-5.68-6.894-8.459-6.828-15.436.132-19.448 20.618-45.503 40.307-51.306 3.448-1.05 9.348-1.05 12.265 0Zm170.71 10.866c1.459.309 3.846 1.05 5.304 1.605l2.652 1.112-5.569.74c-25.457 3.52-50.782 21.116-70.87 49.27-23.932 33.587-32.153 72.113-20.75 97.427 1.127 2.408 1.922 4.569 1.724 4.693-.133.185-2.453-1.729-5.171-4.261-3.448-3.272-5.503-5.865-7.227-9.199-13.126-25.252-2.519-68.286 25.325-102.799 11.734-14.509 27.579-27.29 41.435-33.402l4.906-2.222 3.58 1.914c1.988 1.05 4.508 1.914 5.635 1.914 2.386 0 5.303-2.1 7.093-5.187.729-1.173 1.724-2.284 2.321-2.408 1.392-.247 6.43.124 9.612.803Zm18.563 9.385c11.469 3.519 19.292 12.41 23.005 26.116 2.121 7.965 2.121 23.462-.067 33.649-6.563 31.179-28.043 64.149-53.832 82.856-35.07 25.5-67.952 19.696-75.775-13.274-1.26-5.063-1.724-15.065-1.061-21.547 4.376-43.096 38.054-89.957 75.444-104.837 12.265-4.877 22.806-5.865 32.286-2.963Zm19.358 103.478c11.469 7.964 17.767 18.275 14.585 23.955-.53.988-1.723 2.408-2.652 3.211l-1.657 1.42-6.165-2.223c-3.448-1.235-10.276-3.89-15.315-5.989l-9.016-3.704 4.508-6.421c2.52-3.581 5.503-8.15 6.696-10.126 1.127-2.037 2.519-3.704 2.983-3.704.464 0 3.183 1.605 6.033 3.581Zm-18.496 22.288c4.839 2.285 19.955 8.212 24.463 9.57 3.514 1.05 8.751 5.125 16.574 12.719 3.845 3.704 7.16 8.952 7.823 12.348.53 2.902-1.127 6.915-3.846 9.014l-1.988 1.605-1.326-3.334c-.995-2.531-2.586-4.445-6.696-8.211-6.365-5.866-12.464-9.076-26.585-13.83-8.817-3.026-24.264-8.644-24.794-9.076-.332-.309 11.336-12.595 11.999-12.595.332 0 2.254.802 4.376 1.79ZM240.92 220.36c2.453.987 9.812 3.642 16.507 5.927 20.088 6.853 28.773 11.422 33.877 17.966 3.58 4.631 4.044 6.915 2.321 11.731-1.591 4.507-4.508 7.965-7.691 9.2-3.977 1.605-11.071 1.111-18.098-1.235-12.53-4.137-13.591-4.754-16.508-8.767-7.093-9.879-17.966-17.226-30.761-20.684-2.784-.802-5.105-1.543-5.105-1.79.067-.185 2.056-1.482 4.508-2.902 2.453-1.42 6.961-4.507 10.077-6.915 3.116-2.408 5.834-4.384 6.1-4.384.198 0 2.386.803 4.773 1.853Zm-115.818 17.349c6.099 2.716 8.685 7.717 7.027 13.521-.596 2.038-.795 2.161-3.248 1.976-5.436-.432-26.121-7.841-26.121-9.385 0-1.42 2.056-4.322 4.111-5.803 4.707-3.334 11.27-3.458 18.231-.309Z"/><path fill="#FFE766" d="M231.241 91.938c-11.138 1.79-23.8 8.397-34.872 18.214-11.204 9.94-19.756 20.992-26.65 34.39-10.806 21.239-13.79 41.737-8.287 57.11 8.154 22.536 32.352 27.043 58.472 10.928 7.094-4.383 20.088-16.299 25.723-23.585 10.607-13.768 18.761-30.685 22.01-45.626 1.591-7.409 1.591-21.672 0-27.599-1.856-6.791-4.84-11.916-9.48-16.3-7.16-6.667-16.243-9.199-26.916-7.532Zm12.132 7.78c4.375 7.223 5.9 20.93 3.58 33.216-1.061 5.557-4.641 16.67-7.028 21.61l-1.326 2.84-2.784-1.667c-16.375-9.57-46.208-30.5-46.208-32.353 0-1.234 14.983-14.509 20.021-17.719 10.077-6.421 18.828-9.385 26.983-9.2l4.905.124 1.857 3.149Zm9.016.864c4.906 3.334 8.685 9.323 10.607 16.485 1.459 5.68 1.392 17.905-.066 25.19-4.177 20.19-16.64 41.675-32.816 56.493-12.862 11.793-27.911 19.078-39.512 19.14-3.315 0-9.812-1.544-12.331-2.902l-1.923-1.049 6.166-1.297c8.088-1.729 13.391-3.89 21.148-8.705 34.009-20.992 57.146-70.077 47.003-99.527-.663-1.914-1.458-4.013-1.723-4.63-.663-1.544.397-1.297 3.447.802Zm-60.594 30.932c7.955 6.236 25.126 18.152 35.004 24.203 6.961 4.198 9.215 5.927 9.016 6.668-.53 1.914-6.629 10.99-11.071 16.485-14.055 17.534-32.551 29.018-48.528 30.191l-5.105.37-2.055-3.025c-3.912-5.742-4.972-10.434-4.972-21.547 0-14.571 2.585-24.326 10.607-39.515 4.309-8.211 10.541-17.596 11.668-17.596.331 0 2.784 1.729 5.436 3.766Z"/></svg>
